<svg width="94" height="68" viewBox="0 0 94 68" fill="none" xmlns="http://www.w3.org/2000/svg">
<path d="M87.2827 7.4375H6.60122C5.23999 7.43859 3.93494 7.83074 2.97241 8.5279C2.00987 9.22507 1.46845 10.1703 1.46695 11.1562V48.3438C1.46845 49.3297 2.00987 50.2749 2.97241 50.9721C3.93494 51.6693 5.23999 52.0614 6.60122 52.0625H35.9729L34.2126 55.25H26.4049C26.0158 55.25 25.6427 55.3619 25.3676 55.5612C25.0925 55.7605 24.9379 56.0307 24.9379 56.3125V58.4375H16.1363C15.7472 58.4375 15.3741 58.5494 15.099 58.7487C14.8239 58.948 14.6694 59.2182 14.6694 59.5C14.6694 59.7818 14.8239 60.052 15.099 60.2513C15.3741 60.4506 15.7472 60.5625 16.1363 60.5625H77.7476C78.1367 60.5625 78.5098 60.4506 78.7849 60.2513C79.06 60.052 79.2145 59.7818 79.2145 59.5C79.2145 59.2182 79.06 58.948 78.7849 58.7487C78.5098 58.5494 78.1367 58.4375 77.7476 58.4375H68.946V56.3125C68.946 56.0307 68.7914 55.7605 68.5163 55.5612C68.2412 55.3619 67.8681 55.25 67.479 55.25H59.6713L57.911 52.0625H87.2827C88.6439 52.0614 89.949 51.6693 90.9115 50.9721C91.874 50.2749 92.4154 49.3297 92.417 48.3438V11.1562C92.4154 10.1703 91.874 9.22507 90.9115 8.5279C89.949 7.83074 88.6439 7.43859 87.2827 7.4375ZM66.0121 57.375V58.4375H27.8718V57.375H66.0121ZM37.3739 55.25L39.1342 52.0625H54.7497L56.51 55.25H37.3739ZM89.4831 48.3438C89.4826 48.7663 89.2506 49.1715 88.8381 49.4703C88.4255 49.7691 87.8661 49.9371 87.2827 49.9375H6.60122C6.01779 49.9371 5.45839 49.7691 5.04584 49.4703C4.63329 49.1715 4.40131 48.7663 4.40082 48.3438V45.6875H89.4831V48.3438ZM89.4831 43.5625H4.40082V11.1562C4.40131 10.7337 4.63329 10.3285 5.04584 10.0297C5.45839 9.73088 6.01779 9.56285 6.60122 9.5625H87.2827C87.8661 9.56285 88.4255 9.73088 88.8381 10.0297C89.2506 10.3285 89.4826 10.7337 89.4831 11.1562V43.5625Z" fill="#FFB400"/>
<path d="M40.2692 34.888C40.4303 34.9646 40.6106 35.0174 40.7998 35.0435C40.9891 35.0696 41.1836 35.0684 41.3722 35.04C41.5609 35.0117 41.7399 34.9567 41.8992 34.8782C42.0585 34.7997 42.1949 34.6992 42.3005 34.5826L53.8527 21.8326C54.0662 21.597 54.1417 21.3096 54.0627 21.0337C53.9837 20.7578 53.7565 20.5159 53.4313 20.3613C53.106 20.2066 52.7093 20.1519 52.3283 20.2092C51.9474 20.2664 51.6134 20.4309 51.3999 20.6665L39.8478 33.4165C39.7421 33.5331 39.669 33.6637 39.633 33.8008C39.5969 33.9379 39.5985 34.0788 39.6376 34.2155C39.6768 34.3521 39.7527 34.4819 39.861 34.5973C39.9694 34.7127 40.1081 34.8115 40.2692 34.888Z" fill="#FFB400"/>
<path d="M56.2714 34.8165C56.5703 34.9969 56.9559 35.0839 57.3433 35.0583C57.7308 35.0328 58.0884 34.8968 58.3374 34.6804L65.6721 28.3054C65.8917 28.1144 66.012 27.8738 66.012 27.6252C66.012 27.3767 65.8917 27.136 65.6721 26.9451L58.3374 20.5701C58.2145 20.462 58.0633 20.3726 57.8925 20.307C57.7217 20.2413 57.5346 20.2008 57.3422 20.1878C57.1497 20.1747 56.9555 20.1893 56.7708 20.2307C56.5862 20.2722 56.4146 20.3397 56.2661 20.4293C56.1176 20.519 55.9949 20.629 55.9053 20.7531C55.8157 20.8772 55.7608 21.0128 55.7439 21.1523C55.7269 21.2918 55.7481 21.4324 55.8064 21.5659C55.8647 21.6994 55.9589 21.8233 56.0835 21.9304L62.6355 27.6252L56.0835 33.3201C55.8344 33.5366 55.7143 33.8159 55.7496 34.0965C55.7848 34.3771 55.9725 34.6361 56.2714 34.8165Z" fill="#FFB400"/>
<path d="M35.5464 34.6804C35.6693 34.7884 35.8205 34.8779 35.9913 34.9435C36.1621 35.0091 36.3492 35.0496 36.5417 35.0627C36.7341 35.0758 36.9283 35.0612 37.113 35.0197C37.2977 34.9782 37.4692 34.9107 37.6177 34.8211C37.7663 34.7315 37.8889 34.6214 37.9785 34.4974C38.0681 34.3733 38.123 34.2376 38.14 34.0981C38.1569 33.9586 38.1357 33.8181 38.0774 33.6845C38.0191 33.551 37.925 33.4272 37.8004 33.3201L31.2483 27.6252L37.8004 21.9304C37.925 21.8233 38.0191 21.6994 38.0774 21.5659C38.1357 21.4324 38.1569 21.2918 38.14 21.1523C38.123 21.0128 38.0681 20.8772 37.9785 20.7531C37.8889 20.629 37.7663 20.519 37.6177 20.4293C37.4692 20.3397 37.2977 20.2722 37.113 20.2307C36.9283 20.1893 36.7341 20.1747 36.5417 20.1878C36.3492 20.2008 36.1621 20.2413 35.9913 20.307C35.8205 20.3726 35.6693 20.462 35.5464 20.5701L28.2117 26.9451C27.9921 27.136 27.8718 27.3767 27.8718 27.6252C27.8718 27.8737 27.9921 28.1144 28.2117 28.3054L35.5464 34.6804Z" fill="#FFB400"/>
</svg>
