<svg width="100" height="74" viewBox="0 0 100 74" fill="none" xmlns="http://www.w3.org/2000/svg">
<g clip-path="url(#clip0_311_36)">
<path d="M43.5496 38.1562H55.9923V40.4688H43.5496V38.1562Z" fill="#FFB400"/>
<path d="M48.2156 34.6875H51.3263V43.9375H48.2156V34.6875Z" fill="#FFB400"/>
<path d="M88.6545 38.1562H91.7652V40.4688H88.6545V38.1562Z" fill="#FFB400"/>
<path d="M76.2118 38.1562H79.3225V40.4688H76.2118V38.1562Z" fill="#FFB400"/>
<path d="M82.4332 33.5312H85.5439V35.8438H82.4332V33.5312Z" fill="#FFB400"/>
<path d="M82.4332 42.7812H85.5439V45.0938H82.4332V42.7812Z" fill="#FFB400"/>
<path d="M14.3391 20.3789L7.34004 13.875L14.3391 7.37109L16.7678 8.81641L11.3241 13.875L16.7678 18.9336L14.3391 20.3789Z" fill="#FFB400"/>
<path d="M38.5426 20.3789L36.1139 18.9336L41.5591 13.875L36.1139 8.81641L38.5426 7.37109L45.5401 13.875L38.5426 20.3789Z" fill="#FFB400"/>
<path d="M19.8245 17.7375L30.715 8.48975L33.0556 10.0124L22.1651 19.2607L19.8245 17.7375Z" fill="#FFB400"/>
<path d="M12.4427 50.875H6.22137V46.25H9.33206V48.5625H12.4427V50.875Z" fill="#FFB400"/>
<path d="M94.8759 2.3125H4.66603C2.08923 2.3125 0 3.86565 0 5.78125V52.0312C0 53.9469 2.08923 55.5 4.66603 55.5H37.3282V61.2812C37.3282 63.1969 35.239 64.75 32.6622 64.75H24.8855V71.6875H74.6565V64.75H66.8797C64.3029 64.75 62.2137 63.1969 62.2137 61.2812V55.5H94.8759C97.4527 55.5 99.5419 53.9469 99.5419 52.0312V5.78125C99.5419 3.86565 97.4527 2.3125 94.8759 2.3125ZM71.5458 67.0625V69.375H27.9962V67.0625H71.5458ZM49.771 62.4861C52.3478 62.4861 54.437 60.9329 54.437 59.0173V55.5H59.103V61.2812C59.1091 62.5363 59.6696 63.7552 60.6986 64.75H38.8433C39.8724 63.7552 40.4328 62.5363 40.4389 61.2812V55.5H45.1049V59.0173C45.1049 60.9329 47.1942 62.4861 49.771 62.4861ZM48.2156 59.0173V55.5H51.3263V59.0173C51.3263 59.6558 50.6299 60.1736 49.771 60.1736C48.912 60.1736 48.2156 59.6558 48.2156 59.0173ZM96.4313 52.0312C96.4313 52.6698 95.7348 53.1875 94.8759 53.1875H4.66603C3.8071 53.1875 3.11069 52.6698 3.11069 52.0312V41.625H34.5289C35.8169 46.3319 40.887 49.9553 47.2648 50.726C53.6419 51.4972 59.9954 49.2547 63.223 45.0938H70.5334C73.1398 48.4626 77.8545 50.6288 83.0734 50.8558C88.2923 51.0828 93.3137 49.3399 96.4313 46.2201V52.0312ZM83.9885 48.5625C79.261 48.571 74.9405 46.5758 72.855 43.422L72.4244 42.7812H61.335L60.9044 43.422C58.1765 47.5107 51.845 49.5099 45.9935 48.1295C40.1412 46.7485 36.5187 42.4019 37.4619 37.8915C38.4044 33.3816 43.6316 30.0574 49.771 30.0625H83.9885C90.8607 30.0625 96.4313 34.2037 96.4313 39.3125C96.4313 44.4213 90.8607 48.5625 83.9885 48.5625ZM96.4313 32.4049C93.5059 29.4793 88.8922 27.7534 83.9885 27.75H49.771C41.1847 27.7568 34.2267 32.9294 34.2175 39.3125H3.11069V5.78125C3.11069 5.14272 3.8071 4.625 4.66603 4.625H94.8759C95.7348 4.625 96.4313 5.14272 96.4313 5.78125V32.4049Z" fill="#FFB400"/>
<path d="M63.7691 38.1562H69.9904V40.4688H63.7691V38.1562Z" fill="#FFB400"/>
<path d="M46.6603 9.25H59.103V11.5625H46.6603V9.25Z" fill="#FFB400"/>
<path d="M65.3244 9.25H90.2099V11.5625H65.3244V9.25Z" fill="#FFB400"/>
<path d="M68.4351 13.875H90.2099V16.1875H68.4351V13.875Z" fill="#FFB400"/>
<path d="M49.771 13.875H62.2137V16.1875H49.771V13.875Z" fill="#FFB400"/>
<path d="M46.6603 18.5H77.7671V20.8125H46.6603V18.5Z" fill="#FFB400"/>
<path d="M83.9885 18.5H90.2099V20.8125H83.9885V18.5Z" fill="#FFB400"/>
<path d="M9.33206 23.125H24.8855V25.4375H9.33206V23.125Z" fill="#FFB400"/>
<path d="M31.1069 23.125H60.6584V25.4375H31.1069V23.125Z" fill="#FFB400"/>
<path d="M65.3244 23.125H90.2099V25.4375H65.3244V23.125Z" fill="#FFB400"/>
<path d="M9.33206 27.75H34.2175V30.0625H9.33206V27.75Z" fill="#FFB400"/>
<path d="M9.33206 32.375H21.7748V34.6875H9.33206V32.375Z" fill="#FFB400"/>
<path d="M24.8855 32.375H31.1069V34.6875H24.8855V32.375Z" fill="#FFB400"/>
</g>
<defs>
<clipPath id="clip0_311_36">
<rect width="99.5419" height="74" fill="white"/>
</clipPath>
</defs>
</svg>
