<svg width="92" height="68" viewBox="0 0 92 68" fill="none" xmlns="http://www.w3.org/2000/svg">
<g clip-path="url(#clip0_311_26)">
<path d="M42.5197 49.3384C41.7795 49.3384 41.1798 49.7844 41.1798 50.3345C41.1798 50.8846 41.7795 51.3306 42.5197 51.3306H48.9513C49.6914 51.3306 50.2912 50.8846 50.2912 50.3345C50.2912 49.7844 49.6914 49.3384 48.9513 49.3384H42.5197Z" fill="#FFB400"/>
<path d="M16.0789 33.8716H24.9358C25.4768 34.9183 26.8398 35.6646 28.4359 35.6646C30.0319 35.6646 31.3949 34.9183 31.9359 33.8716H33.7062C34.4463 33.8716 35.0461 33.4256 35.0461 32.8755C35.0461 32.3254 34.4463 31.8794 33.7062 31.8794H31.9359C31.3949 30.8327 30.0319 30.0864 28.4359 30.0864C26.8398 30.0864 25.4768 30.8327 24.9358 31.8794H16.0789C15.3387 31.8794 14.739 32.3254 14.739 32.8755C14.739 33.4256 15.3387 33.8716 16.0789 33.8716ZM28.4359 32.0786C29.027 32.0786 29.5078 32.436 29.5078 32.8755C29.5078 33.315 29.027 33.6724 28.4359 33.6724C27.8447 33.6724 27.3639 33.315 27.3639 32.8755C27.3639 32.436 27.8447 32.0786 28.4359 32.0786Z" fill="#FFB400"/>
<path d="M16.0789 28.1606H17.7897C18.3306 29.2073 19.6936 29.9536 21.2897 29.9536C22.8858 29.9536 24.2487 29.2073 24.7897 28.1606H33.7062C34.4463 28.1606 35.0461 27.7147 35.0461 27.1646C35.0461 26.6144 34.4463 26.1685 33.7062 26.1685H24.7897C24.2487 25.1218 22.8858 24.3755 21.2897 24.3755C19.6936 24.3755 18.3306 25.1218 17.7897 26.1685H16.0789C15.3387 26.1685 14.739 26.6144 14.739 27.1646C14.739 27.7147 15.3387 28.1606 16.0789 28.1606ZM21.2897 26.3677C21.8808 26.3677 22.3616 26.7251 22.3616 27.1646C22.3616 27.604 21.8808 27.9614 21.2897 27.9614C20.6985 27.9614 20.2178 27.604 20.2178 27.1646C20.2178 26.7251 20.6985 26.3677 21.2897 26.3677Z" fill="#FFB400"/>
<path d="M33.9741 18.9966C34.7141 18.9966 35.314 18.5506 35.314 18.0005C35.314 17.4504 34.7141 17.0044 33.9741 17.0044C33.2341 17.0044 32.6342 17.4504 32.6342 18.0005C32.6342 18.5506 33.2341 18.9966 33.9741 18.9966Z" fill="#FFB400"/>
<path d="M30.2819 18.9966C31.0219 18.9966 31.6218 18.5506 31.6218 18.0005C31.6218 17.4504 31.0219 17.0044 30.2819 17.0044C29.5419 17.0044 28.942 17.4504 28.942 18.0005C28.942 18.5506 29.5419 18.9966 30.2819 18.9966Z" fill="#FFB400"/>
<path d="M26.5896 18.9966C27.3297 18.9966 27.9296 18.5506 27.9296 18.0005C27.9296 17.4504 27.3297 17.0044 26.5896 17.0044C25.8496 17.0044 25.2497 17.4504 25.2497 18.0005C25.2497 18.5506 25.8496 18.9966 26.5896 18.9966Z" fill="#FFB400"/>
<path d="M87.4512 6.7048H86.9494L87.3237 6.42655C88.4447 5.59316 88.4447 4.23701 87.3237 3.40361L84.3905 1.22309C83.2695 0.389828 81.4454 0.389828 80.3242 1.22309L72.951 6.70466H4.01972C1.80334 6.70466 0 8.04514 0 9.69294V51.0593C0 53.0732 2.20388 54.7116 4.91299 54.7116H36.65V61.758H30.1926C28.4687 61.758 27.0661 62.8007 27.0661 64.0822V65.0775C27.0661 66.359 28.4687 67.4017 30.1926 67.4017H61.2784C63.0022 67.4017 64.4049 66.359 64.4049 65.0775V64.0822C64.4049 62.8007 63.0022 61.758 61.2784 61.758H54.8209V54.7116H69.1392C69.8794 54.7116 70.4791 54.2656 70.4791 53.7155C70.4791 53.1654 69.8794 52.7194 69.1392 52.7194H4.91299C3.68153 52.7194 2.67981 51.9747 2.67981 51.0593V48.1108H88.7912V51.0593C88.7912 51.9747 87.7894 52.7194 86.558 52.7194H75.3921C74.6519 52.7194 74.0522 53.1654 74.0522 53.7155C74.0522 54.2656 74.6519 54.7116 75.3921 54.7116H86.558C89.2671 54.7116 91.471 53.0732 91.471 51.0593V9.69308C91.471 8.04541 89.6676 6.7048 87.4512 6.7048ZM61.2784 63.7503C61.5248 63.7503 61.725 63.8993 61.725 64.0823V65.0776C61.725 65.2606 61.5248 65.4096 61.2784 65.4096H30.1926C29.9462 65.4096 29.7459 65.2606 29.7459 65.0776V64.0823C29.7459 63.8993 29.9462 63.7503 30.1926 63.7503H61.2784ZM39.3298 54.7119H52.1413V61.7582H39.3298V54.7119ZM82.2192 2.63197C82.2956 2.57526 82.4196 2.57539 82.4957 2.63197L85.4287 4.81235C85.505 4.86906 85.505 4.96137 85.4287 5.01795L82.6301 7.09845L79.4206 4.71248L82.2192 2.63197ZM77.5256 6.12122L80.7349 8.50719L79.8004 9.20194L76.591 6.81596L77.5256 6.12122ZM74.6961 8.2247L77.9056 10.6107L62.0498 22.3979L58.8403 20.0119L74.6961 8.2247ZM72.7123 17.3315C74.5347 17.3315 76.0174 18.4337 76.0174 19.7886C76.0174 21.1434 74.5347 22.2456 72.7123 22.2456C70.8898 22.2456 69.4072 21.1434 69.4072 19.7886C69.4072 19.7727 69.41 19.7575 69.4104 19.7417L72.6497 17.3339C72.6706 17.3336 72.6912 17.3315 72.7123 17.3315ZM59.723 23.4857L55.7575 24.6897L57.3771 21.7417L59.723 23.4857ZM88.7912 46.1189H2.67981V9.69308C2.67981 9.1439 3.28081 8.69698 4.01972 8.69698H70.2713L68.2282 10.2158H22.6891C21.9489 10.2158 21.3492 10.6618 21.3492 11.2119C21.3492 11.762 21.9489 12.208 22.6891 12.208H65.5486L56.0976 19.2343C55.8305 19.4346 55.6217 19.6684 55.4779 19.93L52.4849 25.3774C52.2103 25.8777 52.365 26.4479 52.879 26.8299C53.224 27.0863 53.6827 27.2223 54.1506 27.2223C54.38 27.2223 54.6114 27.1897 54.8327 27.1226L62.1602 24.8977C62.5022 24.7939 62.808 24.6435 63.0724 24.4529L67.1486 21.4231C68.0267 23.0698 70.1884 24.2379 72.7125 24.2379C76.0126 24.2379 78.6974 22.242 78.6974 19.7887C78.6974 17.9126 77.1265 16.3057 74.9117 15.6528L79.5458 12.2081H84.0683V42.608H83.3581L78.5023 36.3556C78.1325 35.879 77.3124 35.7158 76.672 35.991C76.0311 36.2661 75.8116 36.8753 76.1816 37.3517L80.2638 42.608H61.5462L59.5387 40.0231L68.8975 27.9726L73.0549 33.326C73.4251 33.8024 74.2446 33.9658 74.8852 33.6906C75.5261 33.4155 75.7456 32.8063 75.3756 32.3299L70.9402 26.6188C70.5138 26.0698 69.7502 25.742 68.8973 25.742C68.0444 25.742 67.2806 26.0698 66.8542 26.6188L57.9912 38.031L46.6191 23.3883C46.1927 22.8393 45.4291 22.5115 44.576 22.5115C43.7233 22.5115 42.9596 22.8393 42.5331 23.3883L39.5119 27.2785V16.6013C39.5119 15.3198 38.1093 14.2771 36.3854 14.2771H13.3991C11.6752 14.2771 10.2726 15.3198 10.2726 16.6013V38.3826C10.2726 39.298 11.2743 40.0427 12.5058 40.0427H29.5993L27.6069 42.6081H7.4029V12.208H16.4362C17.1764 12.208 17.7761 11.762 17.7761 11.2119C17.7761 10.6618 17.1764 10.2158 16.4362 10.2158H6.95626C5.7248 10.2158 4.72308 10.9605 4.72308 11.876V42.9399C4.72308 43.8554 5.7248 44.6001 6.95626 44.6001H84.5149C85.7464 44.6001 86.7481 43.8554 86.7481 42.9399V11.876C86.7481 10.9605 85.7464 10.2158 84.5149 10.2158H82.226L84.2694 8.69698H87.4512C88.1902 8.69698 88.7912 9.1439 88.7912 9.69308V46.1189ZM36.8326 22.1178V38.0503H12.9524V22.1178H36.8326ZM12.9524 20.1256V16.6011C12.9524 16.418 13.1527 16.269 13.3991 16.269H36.386C36.6323 16.269 36.8326 16.418 36.8326 16.6011V20.1256H12.9524ZM32.6937 40.0425H37.2792C38.5107 40.0425 39.5124 39.2978 39.5124 38.3823V36.2723C39.8476 36.3918 40.2208 36.4565 40.6117 36.4565C41.5264 36.4565 42.3453 36.1048 42.8025 35.5161L45.0829 32.58C45.1518 32.4913 45.2572 32.4725 45.3332 32.4725C45.4094 32.4725 45.5148 32.4913 45.5836 32.58L46.9895 34.3901C47.4468 34.9791 48.2659 35.3307 49.1808 35.3307C50.0955 35.3307 50.9147 34.9791 51.3718 34.3902L51.7209 33.9408L58.4519 42.6077H30.7014L32.6937 40.0425ZM39.5124 32.9379V31.2626L44.5767 24.7419L50.1736 31.9486L49.1807 33.2271L47.9044 31.5838C47.3677 30.8927 46.4065 30.4802 45.333 30.4802C44.2596 30.4802 43.2985 30.8927 42.7618 31.5838L40.6111 34.3529L39.5124 32.9379Z" fill="#FFB400"/>
</g>
<defs>
<clipPath id="clip0_311_26">
<rect width="91.471" height="68" fill="white"/>
</clipPath>
</defs>
</svg>
