<svg width="19" height="18" viewBox="0 0 19 18" fill="none" xmlns="http://www.w3.org/2000/svg">
<g clip-path="url(#clip0_311_115)">
<path d="M1.52432 3.75L6.85946 1.5L11.4324 3.75L16.2363 1.72425C16.2943 1.69979 16.3576 1.68988 16.4204 1.69541C16.4833 1.70094 16.5437 1.72173 16.5964 1.75593C16.6491 1.79013 16.6923 1.83666 16.7221 1.89135C16.752 1.94603 16.7676 2.00716 16.7676 2.06925V14.25L11.4324 16.5L6.85946 14.25L2.05555 16.2758C1.99756 16.3002 1.9343 16.3101 1.87146 16.3046C1.80862 16.2991 1.74815 16.2783 1.69549 16.2441C1.64283 16.2099 1.59963 16.1633 1.56975 16.1087C1.53988 16.054 1.52427 15.9928 1.52432 15.9307V3.75ZM11.4324 14.823V5.382L11.3829 5.403L6.85946 3.177V12.618L6.909 12.597L11.4324 14.823Z" fill="#2B2B2B"/>
</g>
<defs>
<clipPath id="clip0_311_115">
<rect width="18.2919" height="18" fill="white"/>
</clipPath>
</defs>
</svg>
