<svg width="19" height="18" viewBox="0 0 19 18" fill="none" xmlns="http://www.w3.org/2000/svg">
<g clip-path="url(#clip0_311_95)">
<path d="M2.28648 2.25H16.0054C16.2075 2.25 16.4014 2.32902 16.5443 2.46967C16.6873 2.61032 16.7676 2.80109 16.7676 3V15C16.7676 15.1989 16.6873 15.3897 16.5443 15.5303C16.4014 15.671 16.2075 15.75 16.0054 15.75H2.28648C2.08435 15.75 1.89049 15.671 1.74755 15.5303C1.60462 15.3897 1.52432 15.1989 1.52432 15V3C1.52432 2.80109 1.60462 2.61032 1.74755 2.46967C1.89049 2.32902 2.08435 2.25 2.28648 2.25ZM9.19167 8.76225L4.30469 4.6785L3.31769 5.8215L9.20158 10.7378L14.9795 5.81775L13.9826 4.683L9.19244 8.76225H9.19167Z" fill="#2B2B2B"/>
</g>
<defs>
<clipPath id="clip0_311_95">
<rect width="18.2919" height="18" fill="white"/>
</clipPath>
</defs>
</svg>
