<svg width="103" height="74" viewBox="0 0 103 74" fill="none" xmlns="http://www.w3.org/2000/svg">
<g clip-path="url(#clip0_311_31)">
<path d="M51.0839 0C40.0631 0 31.0945 6.7533 31.0945 15.0526V37C31.0945 45.3009 40.0631 52.0526 51.0839 52.0526C62.1047 52.0526 71.0732 45.3009 71.0732 37V15.0526C71.0732 6.7533 62.1047 0 51.0839 0ZM51.0839 48.8352C43.2303 48.8352 36.7338 44.3743 35.6965 38.6087H66.469C65.434 44.3759 58.9375 48.8352 51.0839 48.8352ZM66.6311 35.3913H35.5366V15.0526C35.5366 8.52609 42.5107 3.21739 51.0839 3.21739C59.6571 3.21739 66.6311 8.52609 66.6311 15.0526V35.3913Z" fill="#FFB400"/>
<path d="M82.1784 28.9565C80.9524 28.9565 79.9574 29.6772 79.9574 30.5652V37C79.9574 48.5312 67.0043 57.9131 51.0839 57.9131C35.1635 57.9131 22.2104 48.5312 22.2104 37V30.5652C22.2104 29.6772 21.2154 28.9565 19.9893 28.9565C18.7633 28.9565 17.7683 29.6772 17.7683 30.5652V37C17.7683 49.7618 31.5276 60.2151 48.8628 61.0484V70.7826H37.7577C36.5316 70.7826 35.5366 71.5033 35.5366 72.3913C35.5366 73.2793 36.5316 74 37.7577 74H64.4101C65.6361 74 66.6311 73.2793 66.6311 72.3913C66.6311 71.5033 65.6361 70.7826 64.4101 70.7826H53.3049V61.0484C70.6401 60.2151 84.3994 49.7618 84.3994 37V30.5652C84.3994 29.6772 83.4044 28.9565 82.1784 28.9565Z" fill="#FFB400"/>
</g>
<defs>
<clipPath id="clip0_311_31">
<rect width="102.168" height="74" fill="white"/>
</clipPath>
</defs>
</svg>
