<svg width="21" height="18" viewBox="0 0 21 18" fill="none" xmlns="http://www.w3.org/2000/svg">
<g clip-path="url(#clip0_311_105)">
<path d="M5.1081 1.5H15.3243C15.5501 1.5 15.7667 1.57902 15.9263 1.71967C16.086 1.86032 16.1757 2.05109 16.1757 2.25V15.75C16.1757 15.9489 16.086 16.1397 15.9263 16.2803C15.7667 16.421 15.5501 16.5 15.3243 16.5H5.1081C4.8823 16.5 4.66576 16.421 4.5061 16.2803C4.34644 16.1397 4.25674 15.9489 4.25674 15.75V2.25C4.25674 2.05109 4.34644 1.86032 4.5061 1.71967C4.66576 1.57902 4.8823 1.5 5.1081 1.5ZM10.2162 12.75C9.99041 12.75 9.77387 12.829 9.61421 12.9697C9.45455 13.1103 9.36485 13.3011 9.36485 13.5C9.36485 13.6989 9.45455 13.8897 9.61421 14.0303C9.77387 14.171 9.99041 14.25 10.2162 14.25C10.442 14.25 10.6585 14.171 10.8182 14.0303C10.9779 13.8897 11.0676 13.6989 11.0676 13.5C11.0676 13.3011 10.9779 13.1103 10.8182 12.9697C10.6585 12.829 10.442 12.75 10.2162 12.75Z" fill="#2B2B2B"/>
</g>
<defs>
<clipPath id="clip0_311_105">
<rect width="20.4324" height="18" fill="white"/>
</clipPath>
</defs>
</svg>
