<svg width="108" height="78" viewBox="0 0 108 78" fill="none" xmlns="http://www.w3.org/2000/svg">
<path d="M76.4254 72.9677H103.152L96.2908 58.0584C94.4966 54.1597 89.918 51.2686 84.3407 50.5113L66.0038 48.0203V44.9469C70.3965 42.6509 73.4969 39.1535 74.3967 35.1201C78.4958 34.6182 81.6362 32.0454 81.6362 28.9355V20.129C81.6362 9.03039 69.1685 0 53.8452 0C38.5219 0 26.0541 9.03039 26.0541 20.129V28.9355C26.0541 32.0416 29.1789 34.6295 33.2711 35.1365C34.1743 39.1698 37.2921 42.671 41.6866 44.9657V48.0216L23.348 50.5126C17.7724 51.2699 13.1921 54.1609 11.3978 58.0597L4.53864 72.9677H31.2649V70.4516H26.5422L29.4759 61.9496L26.1062 61.3407L22.9606 70.4516H9.35691L14.6945 58.8548C16.0893 55.8228 19.6518 53.5734 23.9889 52.9834L35.0532 51.4813L37.8827 60.7004C36.0346 61.2816 34.7388 62.6126 34.7388 64.1613V74.2258C34.7388 76.3066 37.0768 78 39.9497 78H67.7407C70.6136 78 72.9515 76.3066 72.9515 74.2258V64.1613C72.9515 62.6126 71.6558 61.2816 69.8094 60.7004L72.6389 51.4813L83.7032 52.9834C88.0403 53.5734 91.6011 55.8228 92.9976 58.8548L98.3335 70.4516H84.7297L81.5841 61.3407L78.2145 61.9496L81.1482 70.4516H76.4254V72.9677ZM69.2223 51.017L66.8236 58.8346L65.6234 55.3548H58.0382L64.847 50.4232L69.2223 51.017ZM63.7787 60.3871H43.9116L44.7801 57.871H62.9103L63.7787 60.3871ZM53.8452 54.834L45.1605 48.5437V46.4226C47.8076 47.3057 50.7447 47.8064 53.8452 47.8064C56.9474 47.8064 59.8828 47.2995 62.5299 46.4163V48.5437L53.8452 54.834ZM74.6885 32.4782V25.394C76.7051 25.9149 78.1624 27.2987 78.1624 28.9367C78.1624 30.5747 76.7051 31.9574 74.6885 32.4782ZM33.0019 32.4945C30.9801 31.975 29.528 30.576 29.528 28.9355C29.528 27.295 30.9801 25.896 33.0019 25.3764V32.4945ZM29.528 23.9359V20.129C29.528 10.4168 40.436 2.51613 53.8452 2.51613C67.2544 2.51613 78.1624 10.4168 78.1624 20.129V23.9359C77.1341 23.3723 75.946 22.9559 74.6329 22.7685C74.3602 21.2827 72.6198 20.129 70.4955 20.129C69.3925 20.129 68.3122 20.4536 67.4437 21.0826C64.51 23.2075 60.7929 24.5625 56.7667 25.0028L56.8779 24.8417C57.1662 24.4215 57.3191 23.9523 57.3191 23.483V23.166C57.3191 21.4915 55.438 20.129 53.1261 20.129C52.0231 20.129 50.9427 20.4536 50.1611 21.0185C46.5014 23.668 41.6466 25.1374 36.4758 25.1613V22.6452H34.7388C32.7761 22.6452 30.9836 23.1371 29.528 23.9359ZM36.4758 32.7097V27.6774C42.5742 27.6535 48.3026 25.9224 52.6154 22.7986C53.034 22.4942 53.8452 22.742 53.8452 23.166V23.483C53.8452 23.5635 53.8191 23.6441 53.7687 23.717L51.0348 27.6774H53.8452C59.9106 27.6774 65.6112 25.9677 69.9848 22.7986C70.4052 22.4942 71.2146 22.742 71.2146 23.166V32.7097C71.2146 39.6466 63.4227 45.2903 53.8452 45.2903C44.2677 45.2903 36.4758 39.6466 36.4758 32.7097ZM42.8434 50.4232L49.6522 55.3548H42.067L40.8668 58.8346L38.468 51.017L42.8434 50.4232ZM39.9497 75.4839C38.9926 75.4839 38.2127 74.9203 38.2127 74.2258V64.1613C38.2127 63.4668 38.9926 62.9032 39.9497 62.9032H45.3533C43.0935 64.5035 41.6866 66.7303 41.6866 69.1936C41.6866 71.6568 43.0935 73.8836 45.3533 75.4839H39.9497ZM53.8452 75.4839C49.0564 75.4839 45.1605 72.662 45.1605 69.1936C45.1605 65.7251 49.0564 62.9032 53.8452 62.9032C58.6339 62.9032 62.5299 65.7251 62.5299 69.1936C62.5299 72.662 58.6339 75.4839 53.8452 75.4839ZM69.4776 74.2258C69.4776 74.9203 68.6978 75.4839 67.7407 75.4839H62.3371C64.5968 73.8836 66.0038 71.6568 66.0038 69.1936C66.0038 66.7303 64.5968 64.5035 62.3371 62.9032H67.7407C68.6978 62.9032 69.4776 63.4668 69.4776 64.1613V74.2258Z" fill="#FFB400"/>
<path d="M53.8452 65.4194C50.9723 65.4194 48.6343 67.1128 48.6343 69.1936C48.6343 71.2745 50.9723 72.9678 53.8452 72.9678C56.7181 72.9678 59.056 71.2745 59.056 69.1936C59.056 67.1128 56.7181 65.4194 53.8452 65.4194ZM53.8452 70.4517C52.8881 70.4517 52.1082 69.8881 52.1082 69.1936C52.1082 68.4992 52.8881 67.9356 53.8452 67.9356C54.8022 67.9356 55.5821 68.4992 55.5821 69.1936C55.5821 69.8881 54.8022 70.4517 53.8452 70.4517Z" fill="#FFB400"/>
</svg>
